<svg width="32" height="20" viewBox="0 0 32 20" fill="none" xmlns="http://www.w3.org/2000/svg">
<g opacity="0.8">
<path d="M31.0622 0.000915527H0V19.6445H31.0622V0.000915527Z" fill="#F0F0F0"/>
<path d="M17.4725 0H13.5897V7.98009H0V11.6632H13.5897V19.6433H17.4725V11.6632H31.0622V7.98009H17.4725V0Z" fill="#D80027"/>
<path d="M23.8902 13.2378L31.0621 17.0174V13.2378H23.8902Z" fill="#0052B4"/>
<path d="M18.9073 13.2379L31.0621 19.6434V17.8321L22.3445 13.2379H18.9073Z" fill="#0052B4"/>
<path d="M27.8245 19.6433L18.9073 14.9437V19.6433H27.8245Z" fill="#0052B4"/>
<path d="M18.9073 13.2378L31.0621 19.6432V17.8319L22.3445 13.2378H18.9073Z" fill="#F0F0F0"/>
<path d="M18.9073 13.2378L31.0621 19.6432V17.8319L22.3445 13.2378H18.9073Z" fill="#D80027"/>
<path d="M5.48084 13.2378L0 16.1262V13.2378H5.48084Z" fill="#0052B4"/>
<path d="M12.1549 14.0522V19.6432H1.54657L12.1549 14.0522Z" fill="#0052B4"/>
<path d="M8.71762 13.2378L0 17.8319V19.6432L12.1548 13.2378H8.71762Z" fill="#D80027"/>
<path d="M7.17191 6.40551L0 2.62592V6.40551H7.17191Z" fill="#0052B4"/>
<path d="M12.1548 6.40544L0 0V1.8113L8.71762 6.40544H12.1548Z" fill="#0052B4"/>
<path d="M3.23767 0L12.1548 4.69968V0H3.23767Z" fill="#0052B4"/>
<path d="M12.1548 6.40544L0 0V1.8113L8.71762 6.40544H12.1548Z" fill="#F0F0F0"/>
<path d="M12.1548 6.40544L0 0V1.8113L8.71762 6.40544H12.1548Z" fill="#D80027"/>
<path d="M25.5813 6.4056L31.0621 3.51721V6.4056H25.5813Z" fill="#0052B4"/>
<path d="M18.9073 5.59107V0.00012207H29.5156L18.9073 5.59107Z" fill="#0052B4"/>
<path d="M22.3445 6.40544L31.0621 1.8113V0L18.9073 6.40544H22.3445Z" fill="#D80027"/>
</g>
</svg>
