<svg width="46" height="38" viewBox="0 0 46 38" fill="none" xmlns="http://www.w3.org/2000/svg">
<path d="M23 37L41.2647 19.4737M23 37L4.7353 19.4737M23 37L16.9118 19.4737M23 37L29.0882 19.4737M41.2647 19.4737L35.1765 11.6842M41.2647 19.4737H29.0882M35.1765 11.6842H23M35.1765 11.6842L29.0882 19.4737M10.8235 11.6842L4.7353 19.4737M10.8235 11.6842L16.9118 19.4737M10.8235 11.6842H23M4.7353 19.4737H16.9118M16.9118 19.4737L23 11.6842M16.9118 19.4737H29.0882M23 11.6842L29.0882 19.4737" stroke="white" stroke-width="1.3"/>
<path d="M23 9.73666V8.43842" stroke="white" stroke-width="1.3"/>
<path d="M23 7.78945V0" stroke="white" stroke-width="1.3"/>
<path d="M37.0166 9.69596L41.889 5.19293" stroke="white" stroke-width="1.3"/>
<path d="M8.93111 9.69596L4.0588 5.19293" stroke="white" stroke-width="1.3"/>
<path d="M43.2941 19.4736H46" stroke="white" stroke-width="1.3"/>
<path d="M0 19.4736H2.70588" stroke="white" stroke-width="1.3"/>
</svg>
