<svg width="37" height="43" viewBox="0 0 37 43" fill="none" xmlns="http://www.w3.org/2000/svg">
<path d="M9.82179 27.9511L13.6837 28.1996L8.67751 41.0734L6.96108 37.0969L2.67001 37.4946L7.81929 25.6312L9.82179 27.9511ZM9.82179 27.9511L7.81929 33.5181" stroke="white"/>
<path d="M26.5569 28.0674L22.695 28.3159L27.7012 41.1897L29.4176 37.2132L33.7087 37.6109L28.5594 25.7475L26.5569 28.0674ZM26.5569 28.0674L28.5594 33.6344" stroke="white"/>
<path d="M27.3619 8.11031C27.1095 8.00489 26.7962 8.0508 26.5986 8.22338C26.4064 8.39125 26.3479 8.64906 26.4556 8.86685C26.5659 9.08983 26.8354 9.23397 27.1149 9.21809C27.3957 9.20215 27.6393 9.03222 27.7181 8.79787C27.8089 8.52776 27.6545 8.23077 27.3619 8.11031V8.11031Z" fill="white"/>
<path d="M28.511 10.3014C28.1819 10.4503 28.0543 10.8026 28.2259 11.0882C30.6383 15.1014 29.6129 20.0234 25.7325 23.0576C21.0427 26.7247 13.789 26.3973 9.56286 22.3278C5.33674 18.2583 5.71401 11.9641 10.4038 8.29704C14.2773 5.26825 20.0187 4.89003 24.3656 7.37741C24.6755 7.55472 25.0925 7.4805 25.2968 7.21154C25.5011 6.94264 25.4155 6.5809 25.1057 6.40359C20.2478 3.6239 13.8321 4.04618 9.50395 7.4305C4.26347 11.5282 3.84191 18.5614 8.56423 23.1087C13.2865 27.656 21.3919 28.0218 26.6324 23.9241C30.9683 20.5338 32.1137 15.0337 29.4179 10.5488C29.2461 10.2632 28.8402 10.1524 28.511 10.3014V10.3014Z" fill="white"/>
<path d="M35.1693 15.3771L33.1266 12.1511L33.0391 8.47069C33.0343 8.2707 32.9118 8.08686 32.7145 7.98346L29.0831 6.08038L26.8899 2.92931C26.7708 2.75813 26.5588 2.65186 26.3284 2.64772L22.087 2.57173L18.3693 0.799295C18.1677 0.703295 17.9235 0.703295 17.722 0.799295L14.0042 2.57185L9.76279 2.64778C9.53238 2.65192 9.32045 2.75825 9.20128 2.92937L7.0081 6.08044L3.37667 7.98352C3.1794 8.08686 3.05694 8.27076 3.05216 8.47075L2.96459 12.1512L0.921959 15.3771C0.81119 15.552 0.81119 15.7639 0.921959 15.9388L2.96465 19.1647L3.05216 22.8451C3.05694 23.0451 3.1794 23.229 3.37667 23.3324L7.0081 25.2354L8.10469 26.811L9.20128 28.3865C9.32045 28.5577 9.53238 28.664 9.76279 28.6681L11.8835 28.7061L14.0042 28.7441L15.8631 29.6304L17.722 30.5166C17.8228 30.5646 17.9342 30.5887 18.0456 30.5887C18.157 30.5887 18.2685 30.5646 18.3692 30.5166L20.2281 29.6304L22.087 28.7441L23.6962 28.7153L26.3284 28.6682C26.5588 28.664 26.7708 28.5577 26.8899 28.3866L27.2324 27.8945L29.0831 25.2355L32.7145 23.3324C32.9118 23.2291 33.0343 23.0452 33.0391 22.8452L33.1266 19.1648L35.1693 15.9388C35.28 15.7639 35.28 15.552 35.1693 15.3771ZM31.8689 18.7286C31.8167 18.8111 31.7883 18.9033 31.786 18.9974L31.7026 22.4999L28.246 24.3114C28.1527 24.3603 28.0745 24.4282 28.0182 24.5091L25.9306 27.5086L21.8942 27.5808C21.7857 27.5827 21.6795 27.6074 21.5844 27.6527L18.0456 29.3399L14.5069 27.6528C14.4118 27.6074 14.3055 27.5827 14.1971 27.5808L10.1606 27.5085L8.07303 24.5091C8.01671 24.4281 7.93847 24.3603 7.84518 24.3114L4.38858 22.4999L4.3053 18.9974C4.30301 18.9033 4.27458 18.8111 4.22236 18.7286L2.27793 15.6579L4.22229 12.5873C4.27451 12.5048 4.30295 12.4126 4.30523 12.3185L4.38858 8.81596L7.84518 7.00445C7.93847 6.95557 8.01671 6.88769 8.07303 6.80673L10.1606 3.8073L14.197 3.7351C14.3055 3.73317 14.4118 3.70844 14.5068 3.66318L18.0456 1.97596L21.5843 3.66313C21.6794 3.70844 21.7857 3.73317 21.8941 3.7351L25.9306 3.80736L28.0182 6.80679C28.0745 6.88774 28.1527 6.95563 28.246 7.00451L31.7026 8.81602L31.7859 12.3185C31.7882 12.4126 31.8166 12.5048 31.8689 12.5873L33.8133 15.6579L31.8689 18.7286Z" fill="white"/>
<path d="M35.1693 15.3771L33.1266 12.1511L33.0391 8.47069C33.0343 8.2707 32.9118 8.08686 32.7145 7.98346L29.0831 6.08038L26.8899 2.92931C26.7708 2.75813 26.5588 2.65186 26.3284 2.64772L22.087 2.57173L18.3693 0.799295C18.1677 0.703295 17.9235 0.703295 17.722 0.799295L14.0042 2.57185L9.76279 2.64778C9.53238 2.65192 9.32045 2.75825 9.20128 2.92937L7.0081 6.08044L3.37667 7.98352C3.1794 8.08686 3.05694 8.27076 3.05216 8.47075L2.96459 12.1512L0.921959 15.3771C0.81119 15.552 0.81119 15.7639 0.921959 15.9388L2.96465 19.1647L3.05216 22.8451C3.05694 23.0451 3.1794 23.229 3.37667 23.3324L7.0081 25.2354L8.10469 26.811L9.20128 28.3865C9.32045 28.5577 9.53238 28.664 9.76279 28.6681L11.8835 28.7061L14.0042 28.7441L15.8631 29.6304L17.722 30.5166C17.8228 30.5646 17.9342 30.5887 18.0456 30.5887C18.157 30.5887 18.2685 30.5646 18.3692 30.5166L20.2281 29.6304L22.087 28.7441L23.6962 28.7153L26.3284 28.6682C26.5588 28.664 26.7708 28.5577 26.8899 28.3866L27.2324 27.8945L29.0831 25.2355L32.7145 23.3324C32.9118 23.2291 33.0343 23.0452 33.0391 22.8452L33.1266 19.1648L35.1693 15.9388C35.28 15.7639 35.28 15.552 35.1693 15.3771ZM31.8689 18.7286C31.8167 18.8111 31.7883 18.9033 31.786 18.9974L31.7026 22.4999L28.246 24.3114C28.1527 24.3603 28.0745 24.4282 28.0182 24.5091L25.9306 27.5086L21.8942 27.5808C21.7857 27.5827 21.6795 27.6074 21.5844 27.6527L18.0456 29.3399L14.5069 27.6528C14.4118 27.6074 14.3055 27.5827 14.1971 27.5808L10.1606 27.5085L8.07303 24.5091C8.01671 24.4281 7.93847 24.3603 7.84518 24.3114L4.38858 22.4999L4.3053 18.9974C4.30301 18.9033 4.27458 18.8111 4.22236 18.7286L2.27793 15.6579L4.22229 12.5873C4.27451 12.5048 4.30295 12.4126 4.30523 12.3185L4.38858 8.81596L7.84518 7.00445C7.93847 6.95557 8.01671 6.88769 8.07303 6.80673L10.1606 3.8073L14.197 3.7351C14.3055 3.73317 14.4118 3.70844 14.5068 3.66318L18.0456 1.97596L21.5843 3.66313C21.6794 3.70844 21.7857 3.73317 21.8941 3.7351L25.9306 3.80736L28.0182 6.80679C28.0745 6.88774 28.1527 6.95563 28.246 7.00451L31.7026 8.81602L31.7859 12.3185C31.7882 12.4126 31.8166 12.5048 31.8689 12.5873L33.8133 15.6579L31.8689 18.7286Z" stroke="white"/>
<path d="M25.8305 13.7293L20.7327 13.1253L18.4538 9.35876C18.3916 9.25563 18.2892 9.17215 18.1627 9.12141C17.8455 8.99373 17.46 9.10013 17.3014 9.35876L15.0225 13.1253L9.92472 13.7293C9.78417 13.7457 9.65567 13.7997 9.55729 13.8816C9.43835 13.9812 9.37281 14.1153 9.37507 14.2543C9.37733 14.3934 9.4472 14.526 9.56934 14.6231L13.2577 17.5548L12.3863 21.6945C12.3658 21.7908 12.3789 21.8899 12.424 21.9804C12.4691 22.071 12.5444 22.1494 12.6414 22.2069C12.7384 22.2643 12.8532 22.2984 12.9728 22.3054C13.0923 22.3123 13.2119 22.2918 13.3179 22.2462L17.8776 20.2917L22.4373 22.2462C22.5618 22.3002 22.7063 22.3182 22.8449 22.2986C23.1942 22.2495 23.4292 21.9794 23.3689 21.6945L22.4975 17.5548L26.1859 14.6231C26.2862 14.5429 26.3525 14.4381 26.3726 14.3235C26.4268 14.0371 26.1818 13.7719 25.8305 13.7293ZM20.9455 17.1423L21.6703 20.5847L17.8776 18.9609L14.0849 20.5864L14.8097 17.1439L11.7418 14.7049L15.9822 14.2024L17.8776 11.071L19.773 14.2024L24.0134 14.7049L20.9455 17.1423Z" fill="white"/>
</svg>
