<svg width="41" height="35" viewBox="0 0 41 35" fill="none" xmlns="http://www.w3.org/2000/svg">
<path d="M36.6809 8.5V2C36.6809 1.44772 37.1286 1 37.6809 1H39C39.5523 1 40 1.44772 40 2V33C40 33.5523 39.5523 34 39 34H37.6809C37.1286 34 36.6809 33.5523 36.6809 33V31M36.6809 8.5V19.75M36.6809 8.5H34.1915M4.31915 8.5V2C4.31915 1.44772 3.87143 1 3.31915 1H2C1.44772 1 1 1.44772 1 2V33C1 33.5523 1.44772 34 2 34H3.31915C3.87143 34 4.31915 33.5523 4.31915 33V31M4.31915 8.5V19.75M4.31915 8.5H6.80851M4.31915 19.75V31M4.31915 19.75H6.80851M36.6809 19.75V31M36.6809 19.75H34.1915M36.6809 31H34.1915M4.31915 31H6.80851M16.766 8.5H18.4255H22.5745H24.234M16.766 8.5V3.5C16.766 2.94772 17.2137 2.5 17.766 2.5H23.234C23.7863 2.5 24.234 2.94772 24.234 3.5V8.5M16.766 8.5H26.7234M16.766 8.5H14.2766M24.234 8.5H26.7234M26.7234 8.5H28.383H30.4574H32.5319H34.1915M26.7234 8.5V3.5C26.7234 2.94772 27.1711 2.5 27.7234 2.5H33.1915C33.7438 2.5 34.1915 2.94772 34.1915 3.5V8.5M6.80851 8.5H8.46809H12.617H14.2766M6.80851 8.5V3.5C6.80851 2.94772 7.25623 2.5 7.80851 2.5H13.2766C13.8289 2.5 14.2766 2.94772 14.2766 3.5V8.5M16.766 19.75H18.4255H22.5745H24.234M16.766 19.75V14.75C16.766 14.1977 17.2137 13.75 17.766 13.75H23.234C23.7863 13.75 24.234 14.1977 24.234 14.75V19.75M16.766 19.75H14.2766M24.234 19.75H26.7234M34.1915 19.75H32.5319H28.383H26.7234M34.1915 19.75V14.75C34.1915 14.1977 33.7438 13.75 33.1915 13.75H27.7234C27.1711 13.75 26.7234 14.1977 26.7234 14.75V19.75M6.80851 19.75V14.75C6.80851 14.1977 7.25623 13.75 7.80851 13.75H13.2766C13.8289 13.75 14.2766 14.1977 14.2766 14.75V19.75M6.80851 19.75H8.46809H12.617H14.2766M6.80851 31V26C6.80851 25.4477 7.25623 25 7.80851 25H13.2766C13.8289 25 14.2766 25.4477 14.2766 26V31M6.80851 31H8.46809H12.617H14.2766M14.2766 31H16.766M16.766 31V26C16.766 25.4477 17.2137 25 17.766 25H23.234C23.7863 25 24.234 25.4477 24.234 26V31M16.766 31H18.4255H22.5745H24.234M24.234 31H26.7234M26.7234 31V26C26.7234 25.4477 27.1711 25 27.7234 25H33.1915C33.7438 25 34.1915 25.4477 34.1915 26V31M26.7234 31H28.383H32.5319H34.1915" stroke="white" stroke-width="1.2"/>
</svg>
