<svg width="31" height="29" viewBox="0 0 31 29" fill="none" xmlns="http://www.w3.org/2000/svg">
<path d="M15.5 29C24.0605 29 31 22.5082 31 14.5C31 6.49187 24.0605 0 15.5 0C6.93958 0 0 6.49187 0 14.5C0 22.5082 6.93958 29 15.5 29Z" fill="#F0F0F0"/>
<path d="M3.20408 5.672C1.98655 7.15389 1.06847 8.86188 0.533905 10.7174H8.59741L3.20408 5.672Z" fill="#0052B4"/>
<path d="M30.4661 10.7174C29.9315 8.862 29.0134 7.15401 27.7959 5.67212L22.4027 10.7174H30.4661Z" fill="#0052B4"/>
<path d="M0.533905 18.2828C1.06853 20.1383 1.98661 21.8463 3.20408 23.3281L8.59723 18.2828H0.533905Z" fill="#0052B4"/>
<path d="M24.9367 2.9976C23.3526 1.85861 21.5269 0.999774 19.5435 0.499634V8.04287L24.9367 2.9976Z" fill="#0052B4"/>
<path d="M6.06335 26.0026C7.64744 27.1415 9.47324 28.0004 11.4567 28.5004V20.9573L6.06335 26.0026Z" fill="#0052B4"/>
<path d="M11.4566 0.499634C9.47317 0.999774 7.64739 1.85861 6.06335 2.99754L11.4566 8.0428V0.499634Z" fill="#0052B4"/>
<path d="M19.5435 28.5004C21.5268 28.0004 23.3526 27.1415 24.9366 26.0026L19.5435 20.9573V28.5004Z" fill="#0052B4"/>
<path d="M22.4027 18.2828L27.7959 23.3282C29.0134 21.8463 29.9315 20.1383 30.4661 18.2828H22.4027Z" fill="#0052B4"/>
<path d="M30.8688 12.6087H17.5219H17.5218V0.122741C16.8599 0.0421406 16.1852 0 15.5 0C14.8147 0 14.1401 0.0421406 13.4783 0.122741V12.6086V12.6087H0.131206C0.0450469 13.2278 0 13.859 0 14.5C0 15.1411 0.0450469 15.7722 0.131206 16.3913H13.4781H13.4782V28.8773C14.1401 28.9579 14.8147 29 15.5 29C16.1852 29 16.8599 28.9579 17.5217 28.8773V16.3914V16.3913H30.8688C30.955 15.7722 31 15.1411 31 14.5C31 13.859 30.955 13.2278 30.8688 12.6087Z" fill="#D80027"/>
<path d="M19.5435 18.2826L26.4601 24.753C26.7782 24.4555 27.0817 24.1445 27.3712 23.8221L21.4496 18.2825H19.5435V18.2826Z" fill="#D80027"/>
<path d="M11.4565 18.2828H11.4564L4.53976 24.7532C4.85776 25.0508 5.19022 25.3346 5.53485 25.6055L11.4565 20.0658V18.2828Z" fill="#D80027"/>
<path d="M11.4566 10.7177V10.7176L4.54002 4.24707C4.22191 4.54455 3.91845 4.85556 3.62891 5.17796L9.55057 10.7176H11.4566V10.7177Z" fill="#D80027"/>
<path d="M19.5435 10.7176L26.4602 4.24705C26.1422 3.94945 25.8097 3.66557 25.4651 3.39478L19.5435 8.9344V10.7176Z" fill="#D80027"/>
</svg>
