<svg width="187" height="72" viewBox="0 0 187 72" fill="none" xmlns="http://www.w3.org/2000/svg">
<g clip-path="url(#clip0)">
<path d="M186.344 0.626099H0.656128V71.3739H186.344V0.626099Z" fill="#C40000" stroke="white" stroke-width="2"/>
<path d="M95.6863 11.7854V33.1826H96.3162V23.4156H104.914C108.977 23.4156 111.623 21.1316 111.623 17.5855C111.623 13.4984 108.694 11.7854 105.135 11.7854H95.6863ZM96.3162 12.3564H104.694C108.316 12.3564 110.961 13.7689 110.961 17.6155C110.961 21.2218 108.127 22.8446 104.757 22.8446H96.3162V12.3564ZM119.639 11.7854H119.041L109.812 33.1826H110.537L113.561 26.1203H124.962L127.922 33.1826H128.647L119.639 11.7854ZM124.741 25.5493H113.781L119.324 12.4466L124.741 25.5493ZM149.219 24.768H148.62C148.085 29.4261 144.747 33.0924 139.487 33.0924C133.094 33.0924 129.913 28.0436 129.913 22.514C129.913 16.173 133.818 11.8455 139.55 11.8455C143.739 11.8455 147.361 14.2197 148.179 18.2166H148.778C148.242 14.2497 144.306 11.2745 139.644 11.2745C133.471 11.2745 129.283 15.8425 129.283 22.514C129.283 28.4043 132.747 33.6634 139.487 33.6634C144.747 33.6634 148.809 29.967 149.219 24.768ZM168.669 11.7854H167.755L152.197 24.8281V11.7854H151.567V33.1826H152.197V25.5493L157.331 21.2218L168.574 33.1826H169.393L157.803 20.8011L168.669 11.7854Z" fill="white"/>
<path d="M31.6889 11.7855H16.7919V33.1827H31.8464V32.6117H17.4218V22.3038H30.8701V21.7328H17.4218V12.3565H31.6889V11.7855ZM49.5499 17.7959C49.3925 13.228 45.8965 11.3347 41.2983 11.3347C36.7001 11.3347 33.8971 13.4083 33.8971 16.7742C33.8971 21.1918 38.6213 21.7929 42.1172 22.5742C45.2667 23.2955 49.3609 23.6561 49.3609 27.6831C49.3609 31.079 46.5579 33.0925 41.8022 33.0925C36.7316 33.0925 33.8971 30.6282 33.8971 26.1805V26.0903H33.2672V26.481C33.2672 31.4396 37.0465 33.6034 41.8337 33.6034C46.9359 33.6034 49.9909 31.3795 49.9909 27.6831C49.9909 23.3255 46.0225 22.8147 42.5266 22.0634C39.3456 21.3722 34.5584 20.9514 34.5584 16.8343C34.5584 13.7389 37.078 11.9358 41.3298 11.9358C45.6446 11.9358 48.7311 13.5285 48.8885 17.7959H49.5499ZM68.8035 17.7959C68.646 13.228 65.1501 11.3347 60.5519 11.3347C55.9537 11.3347 53.1506 13.4083 53.1506 16.7742C53.1506 21.1918 57.8748 21.7929 61.3708 22.5742C64.5202 23.2955 68.6146 23.6561 68.6146 27.6831C68.6146 31.079 65.8115 33.0925 61.0558 33.0925C55.9852 33.0925 53.1506 30.6282 53.1506 26.1805V26.0903H52.5207V26.481C52.5207 31.4396 56.3001 33.6034 61.0873 33.6034C66.1895 33.6034 69.2444 31.3795 69.2444 27.6831C69.2444 23.3255 65.2761 22.8147 61.7802 22.0634C58.5992 21.3722 53.812 20.9514 53.812 16.8343C53.812 13.7389 56.3316 11.9358 60.5834 11.9358C64.8982 11.9358 67.9847 13.5285 68.1421 17.7959H68.8035ZM81.7584 11.2446C75.6484 11.2446 71.3966 15.8726 71.3966 22.4841C71.3966 29.1256 75.5854 33.6935 81.7899 33.6935C88.0573 33.6935 92.3406 29.1857 92.3406 22.6644C92.3406 15.9327 87.9943 11.2446 81.7584 11.2446ZM81.8213 11.8156C87.6164 11.8156 91.6477 16.2633 91.6477 22.6343C91.6477 28.8551 87.6479 33.1226 81.7584 33.1226C76.0263 33.1226 72.0895 28.7349 72.0895 22.424C72.0895 16.2032 76.1208 11.8156 81.8213 11.8156Z" fill="white"/>
<path d="M31.689 11.7855H32.3451V11.1594H31.689V11.7855ZM16.7919 11.7855V11.1594H16.1358V11.7855H16.7919ZM16.7919 33.1826H16.1358V33.8087H16.7919V33.1826ZM31.8464 33.1826V33.8087H32.5026V33.1826H31.8464ZM31.8464 32.6117H32.5026V31.9856H31.8464V32.6117ZM17.4218 32.6117H16.7657V33.2377H17.4218V32.6117ZM17.4218 22.3038V21.6777H16.7657V22.3038H17.4218ZM30.8701 22.3038V22.9298H31.5262V22.3038H30.8701ZM30.8701 21.7328H31.5262V21.1067H30.8701V21.7328ZM17.4218 21.7328H16.7657V22.3589H17.4218V21.7328ZM17.4218 12.3565V11.7304H16.7657V12.3565H17.4218ZM31.689 12.3565V12.9826H32.3451V12.3565H31.689ZM31.689 11.1594H16.7919V12.4116H31.689V11.1594ZM16.1358 11.7855V33.1826H17.4481V11.7855H16.1358ZM16.7919 33.8087H31.8464V32.5566H16.7919V33.8087ZM32.5026 33.1826V32.6117H31.1903V33.1826H32.5026ZM31.8464 31.9856H17.4218V33.2377H31.8464V31.9856ZM18.078 32.6117V22.3038H16.7657V32.6117H18.078ZM17.4218 22.9298H30.8701V21.6777H17.4218V22.9298ZM31.5262 22.3038V21.7328H30.214V22.3038H31.5262ZM30.8701 21.1067H17.4218V22.3589H30.8701V21.1067ZM18.078 21.7328V12.3565H16.7657V21.7328H18.078ZM17.4218 12.9826H31.689V11.7304H17.4218V12.9826ZM32.3451 12.3565V11.7855H31.0328V12.3565H32.3451ZM49.5499 17.7959V18.422H50.228L50.2057 17.7753L49.5499 17.7959ZM42.1172 22.5742L42.2703 21.9654L42.2668 21.9647L42.1172 22.5742ZM33.8971 26.0903H34.5532V25.4642H33.8971V26.0903ZM33.2672 26.0903V25.4642H32.611V26.0903H33.2672ZM42.5266 22.0633L42.3809 22.6738L42.3824 22.6742L42.5266 22.0633ZM48.8886 17.7959L48.2328 17.818L48.2551 18.422H48.8886V17.7959ZM50.2057 17.7753C50.1212 15.325 49.1292 13.5221 47.4815 12.3504C45.8599 11.1971 43.6791 10.7086 41.2983 10.7086V11.9608C43.5157 11.9608 45.382 12.419 46.6973 13.3543C47.9865 14.2712 48.8211 15.6989 48.8941 17.8165L50.2057 17.7753ZM41.2983 10.7086C38.9051 10.7086 36.8976 11.2473 35.4725 12.2966C34.0278 13.3603 33.2409 14.9073 33.2409 16.7742H34.5532C34.5532 15.2752 35.1678 14.1025 36.2741 13.2879C37.4001 12.4589 39.0932 11.9608 41.2983 11.9608V10.7086ZM33.2409 16.7742C33.2409 17.9919 33.5689 18.9844 34.1493 19.7892C34.725 20.5875 35.5207 21.1617 36.3942 21.5937C38.1067 22.4405 40.2809 22.8068 41.9675 23.1838L42.2668 21.9647C40.4575 21.5603 38.5217 21.2354 36.998 20.4819C36.2535 20.1138 35.6496 19.6606 35.2303 19.0793C34.8157 18.5045 34.5532 17.7653 34.5532 16.7742H33.2409ZM41.964 23.183C43.6205 23.5624 45.2976 23.8079 46.6241 24.4477C47.2646 24.7568 47.7752 25.1393 48.1284 25.638C48.478 26.1316 48.7048 26.7829 48.7048 27.6831H50.0171C50.0171 26.5697 49.7321 25.6659 49.2156 24.9368C48.7027 24.2127 47.9929 23.7049 47.2161 23.3303C45.7081 22.6028 43.7632 22.3073 42.2703 21.9654L41.964 23.183ZM48.7048 27.6831C48.7048 29.197 48.0906 30.3585 46.9711 31.1606C45.8275 31.9798 44.0943 32.4664 41.8022 32.4664V33.7186C44.2658 33.7186 46.312 33.1984 47.7589 32.1619C49.2297 31.1083 50.0171 29.5651 50.0171 27.6831H48.7048ZM41.8022 32.4664C39.371 32.4664 37.5747 31.8759 36.3911 30.8425C35.2164 29.8169 34.5532 28.2748 34.5532 26.1805H33.2409C33.2409 28.534 33.9949 30.4478 35.5052 31.7663C37.0064 33.077 39.1627 33.7186 41.8022 33.7186V32.4664ZM34.5532 26.1805V26.0903H33.2409V26.1805H34.5532ZM33.8971 25.4642H33.2672V26.7164H33.8971V25.4642ZM32.611 26.0903V26.481H33.9233V26.0903H32.611ZM32.611 26.481C32.611 29.1285 33.6296 31.1 35.349 32.3933C37.045 33.669 39.3479 34.2295 41.8337 34.2295V32.9773C39.5323 32.9773 37.552 32.4559 36.1614 31.41C34.7944 30.3818 33.9233 28.7921 33.9233 26.481H32.611ZM41.8337 34.2295C44.4743 34.2295 46.6706 33.6552 48.223 32.5276C49.7974 31.384 50.647 29.7147 50.647 27.6831H49.3347C49.3347 29.3479 48.6568 30.6387 47.4281 31.5312C46.1775 32.4397 44.2952 32.9773 41.8337 32.9773V34.2295ZM50.647 27.6831C50.647 26.5002 50.3766 25.5346 49.8774 24.7481C49.3791 23.9626 48.6796 23.3979 47.8912 22.975C46.355 22.1514 44.3594 21.8155 42.6708 21.4525L42.3824 22.6742C44.1897 23.0625 45.9262 23.3577 47.2482 24.0667C47.8888 24.4102 48.3999 24.8372 48.7549 25.3966C49.1091 25.9548 49.3347 26.6872 49.3347 27.6831H50.647ZM42.6723 21.4529C41.0033 21.0902 39.1366 20.8348 37.6259 20.1657C36.8895 19.8395 36.2926 19.4348 35.8795 18.9135C35.474 18.4016 35.2146 17.7385 35.2146 16.8343H33.9023C33.9023 17.9886 34.2412 18.922 34.8327 19.6686C35.4167 20.4057 36.2153 20.9214 37.0734 21.3014C38.7515 22.0447 40.8689 22.3453 42.3809 22.6738L42.6723 21.4529ZM35.2146 16.8343C35.2146 15.4676 35.7603 14.4342 36.7454 13.7237C37.7544 12.9958 39.2897 12.5618 41.3298 12.5618V11.3097C39.1181 11.3097 37.2677 11.7772 35.954 12.7248C34.6163 13.6897 33.9023 15.1055 33.9023 16.8343H35.2146ZM41.3298 12.5618C43.4185 12.5618 45.1081 12.9499 46.28 13.7704C47.4208 14.5691 48.1598 15.8402 48.2328 17.818L49.5442 17.7739C49.4598 15.4843 48.5768 13.8253 47.0563 12.7608C45.5669 11.718 43.5558 11.3097 41.3298 11.3097V12.5618ZM48.8886 18.422H49.5499V17.1698H48.8886V18.422ZM68.8035 17.7959V18.422H69.4813L69.459 17.7753L68.8035 17.7959ZM61.3708 22.5742L61.5239 21.9654L61.5204 21.9647L61.3708 22.5742ZM53.1506 26.0903H53.8068V25.4642H53.1506V26.0903ZM52.5208 26.0903V25.4642H51.8646V26.0903H52.5208ZM61.7802 22.0633L61.6345 22.6738L61.6361 22.6742L61.7802 22.0633ZM68.1421 17.7959L67.4867 17.818L67.509 18.422H68.1421V17.7959ZM69.459 17.7753C69.375 15.325 68.3829 13.5221 66.7354 12.3504C65.1135 11.1971 62.9328 10.7086 60.5519 10.7086V11.9608C62.7693 11.9608 64.6357 12.419 65.9506 13.3543C67.24 14.2712 68.0746 15.6989 68.148 17.8165L69.459 17.7753ZM60.5519 10.7086C58.1587 10.7086 56.1512 11.2473 54.7261 12.2966C53.2813 13.3603 52.4945 14.9073 52.4945 16.7742H53.8068C53.8068 15.2752 54.4215 14.1025 55.5278 13.2879C56.6538 12.4589 58.3469 11.9608 60.5519 11.9608V10.7086ZM52.4945 16.7742C52.4945 17.9919 52.8224 18.9844 53.4029 19.7892C53.9787 20.5875 54.7743 21.1617 55.6479 21.5937C57.3602 22.4405 59.5345 22.8068 61.2211 23.1838L61.5204 21.9647C59.7111 21.5603 57.7753 21.2354 56.2516 20.4819C55.5071 20.1138 54.9032 19.6606 54.4839 19.0793C54.0694 18.5045 53.8068 17.7653 53.8068 16.7742H52.4945ZM61.2176 23.183C62.8742 23.5624 64.5512 23.8079 65.8778 24.4477C66.5182 24.7568 67.0287 25.1393 67.3817 25.638C67.7314 26.1316 67.9584 26.7829 67.9584 27.6831H69.2707C69.2707 26.5697 68.9859 25.6659 68.4696 24.9368C67.9565 24.2127 67.2465 23.7049 66.4696 23.3303C64.9617 22.6028 63.0168 22.3073 61.5239 21.9654L61.2176 23.183ZM67.9584 27.6831C67.9584 29.197 67.3443 30.3585 66.2249 31.1606C65.0811 31.9798 63.3479 32.4664 61.0558 32.4664V33.7186C63.5194 33.7186 65.5656 33.1984 67.0123 32.1619C68.4833 31.1083 69.2707 29.5651 69.2707 27.6831H67.9584ZM61.0558 32.4664C58.6247 32.4664 56.8283 31.8759 55.6446 30.8425C54.47 29.8169 53.8068 28.2748 53.8068 26.1805H52.4945C52.4945 28.534 53.2485 30.4478 54.7588 31.7663C56.2601 33.077 58.4163 33.7186 61.0558 33.7186V32.4664ZM53.8068 26.1805V26.0903H52.4945V26.1805H53.8068ZM53.1506 25.4642H52.5208V26.7164H53.1506V25.4642ZM51.8646 26.0903V26.481H53.1769V26.0903H51.8646ZM51.8646 26.481C51.8646 29.1285 52.8831 31.1 54.6026 32.3933C56.2986 33.669 58.6016 34.2295 61.0873 34.2295V32.9773C58.7858 32.9773 56.8055 32.4559 55.4151 31.41C54.0481 30.3818 53.1769 28.7921 53.1769 26.481H51.8646ZM61.0873 34.2295C63.7279 34.2295 65.9244 33.6552 67.4768 32.5276C69.0509 31.384 69.9006 29.7147 69.9006 27.6831H68.5883C68.5883 29.3479 67.9105 30.6387 66.6816 31.5312C65.4311 32.4397 63.5489 32.9773 61.0873 32.9773V34.2295ZM69.9006 27.6831C69.9006 26.5002 69.6303 25.5346 69.1309 24.7481C68.6329 23.9626 67.9335 23.3979 67.1448 22.975C65.6087 22.1514 63.6129 21.8155 61.9244 21.4525L61.6361 22.6742C63.4434 23.0625 65.1798 23.3577 66.5018 24.0667C67.1422 24.4102 67.6533 24.8372 68.0083 25.3966C68.3626 25.9548 68.5883 26.6872 68.5883 27.6831H69.9006ZM61.9259 21.4529C60.2568 21.0902 58.3902 20.8348 56.8795 20.1657C56.1431 19.8395 55.5462 19.4348 55.1332 18.9135C54.7276 18.4016 54.4682 17.7385 54.4682 16.8343H53.1559C53.1559 17.9886 53.4949 18.922 54.0863 19.6686C54.6703 20.4057 55.469 20.9214 56.327 21.3014C58.0052 22.0447 60.1226 22.3453 61.6345 22.6738L61.9259 21.4529ZM54.4682 16.8343C54.4682 15.4676 55.0139 14.4342 55.999 13.7237C57.008 12.9958 58.5433 12.5618 60.5834 12.5618V11.3097C58.3717 11.3097 56.5213 11.7772 55.2076 12.7248C53.87 13.6897 53.1559 15.1055 53.1559 16.8343H54.4682ZM60.5834 12.5618C62.6722 12.5618 64.3617 12.9499 65.5336 13.7704C66.6744 14.5691 67.4132 15.8402 67.4867 17.818L68.7976 17.7739C68.7136 15.4843 67.8305 13.8253 66.3102 12.7608C64.8205 11.718 62.8094 11.3097 60.5834 11.3097V12.5618ZM68.1421 18.422H68.8035V17.1698H68.1421V18.422ZM81.7584 10.6185C78.5183 10.6185 75.7468 11.8502 73.7935 13.9717C71.8447 16.0873 70.7405 19.0517 70.7405 22.4841H72.0527C72.0527 19.3049 73.0737 16.6496 74.779 14.7983C76.4784 12.9529 78.8878 11.8706 81.7584 11.8706V10.6185ZM70.7405 22.4841C70.7405 25.9286 71.8277 28.8871 73.7745 30.9935C75.7271 33.1065 78.5078 34.3196 81.7899 34.3196V33.0674C78.8674 33.0674 76.4508 31.9966 74.7587 30.1653C73.0599 28.3273 72.0527 25.6811 72.0527 22.4841H70.7405ZM81.7899 34.3196C85.0975 34.3196 87.9149 33.1259 89.9004 31.0461C91.8813 28.971 92.9967 26.0554 92.9967 22.6644H91.6845C91.6845 25.7947 90.6576 28.3936 88.9306 30.2028C87.2076 32.0073 84.7497 33.0674 81.7899 33.0674V34.3196ZM92.9967 22.6644C92.9967 19.1713 91.8682 16.161 89.8794 14.0153C87.8854 11.8639 85.0594 10.6185 81.7584 10.6185V11.8706C84.6933 11.8706 87.1577 12.9692 88.8965 14.8449C90.6399 16.7261 91.6845 19.4258 91.6845 22.6644H92.9967ZM81.8214 12.4416C84.5306 12.4416 86.8054 13.4764 88.4116 15.2457C90.0238 17.0216 90.9916 19.5728 90.9916 22.6343H92.3039C92.3039 19.3248 91.256 16.4666 89.4037 14.4259C87.5449 12.3785 84.9065 11.1895 81.8214 11.1895V12.4416ZM90.9916 22.6343C90.9916 25.6178 90.0336 28.0823 88.4234 29.7929C86.8185 31.4979 84.5273 32.4965 81.7584 32.4965V33.7486C84.879 33.7486 87.5324 32.6135 89.3998 30.6296C91.2619 28.6513 92.3039 25.8716 92.3039 22.6343H90.9916ZM81.7584 32.4965C79.08 32.4965 76.8458 31.4767 75.2718 29.7315C73.6911 27.9789 72.7456 25.4576 72.7456 22.424H71.4333C71.4333 25.7013 72.4563 28.5293 74.2771 30.5483C76.1044 32.5745 78.704 33.7486 81.7584 33.7486V32.4965ZM72.7456 22.424C72.7456 16.4683 76.5624 12.4416 81.8214 12.4416V11.1895C75.6792 11.1895 71.4333 15.938 71.4333 22.424H72.7456Z" fill="white"/>
<path d="M17.9721 61.3565H16.9572V50.7228H17.9721V61.3565ZM16.8136 47.7685C16.8136 47.1424 17.0289 46.8293 17.4595 46.8293C17.6714 46.8293 17.8354 46.9109 17.9516 47.0739C18.0746 47.2369 18.1361 47.4685 18.1361 47.7685C18.1361 48.0619 18.0746 48.2934 17.9516 48.463C17.8354 48.6326 17.6714 48.7174 17.4595 48.7174C17.0289 48.7174 16.8136 48.4011 16.8136 47.7685ZM32.6348 61.3565V54.4598C32.6348 53.3902 32.399 52.6141 31.9274 52.1315C31.4558 51.6424 30.7244 51.3978 29.7334 51.3978C28.4006 51.3978 27.4233 51.7207 26.8013 52.3663C26.1862 53.0054 25.8786 54.0456 25.8786 55.4869V61.3565H24.8637V50.7228H25.7248L25.9196 52.1805H25.9811C26.7056 51.0717 27.994 50.5174 29.8462 50.5174C32.3751 50.5174 33.6395 51.8119 33.6395 54.4011V61.3565H32.6348ZM43.3401 60.6913C43.9826 60.6913 44.5431 60.6391 45.0215 60.5348V61.3174C44.5294 61.4739 43.9621 61.5522 43.3196 61.5522C42.3354 61.5522 41.6075 61.3011 41.1359 60.7989C40.6711 60.2967 40.4387 59.5076 40.4387 58.4315V51.5641H38.7881V50.9967L40.4387 50.5565L40.9514 48.15H41.4742V50.7228H44.7446V51.5641H41.4742V58.2946C41.4742 59.1098 41.6246 59.713 41.9253 60.1043C42.226 60.4956 42.6977 60.6913 43.3401 60.6913ZM55.0809 61.5522C53.4611 61.5522 52.1966 61.0761 51.2876 60.1239C50.3854 59.1717 49.9343 57.838 49.9343 56.1228C49.9343 54.4272 50.3718 53.0706 51.2466 52.0532C52.1215 51.0293 53.3004 50.5174 54.7837 50.5174C56.0959 50.5174 57.1314 50.9543 57.89 51.8282C58.6487 52.7022 59.028 53.8891 59.028 55.3892V56.1718H51.0005C51.0143 57.6326 51.3696 58.7478 52.0668 59.5174C52.7707 60.287 53.7755 60.6717 55.0809 60.6717C55.7166 60.6717 56.2736 60.6293 56.7521 60.5445C57.2373 60.4598 57.849 60.2771 58.5872 59.9967V60.8772C57.9584 61.138 57.3774 61.3141 56.8443 61.4054C56.3112 61.5033 55.7234 61.5522 55.0809 61.5522ZM54.7837 51.3782C53.7105 51.3782 52.8493 51.7174 52.2001 52.3956C51.5508 53.0674 51.1714 54.0391 51.0621 55.3109H57.9516C57.9516 54.0782 57.6713 53.1163 57.1109 52.425C56.5504 51.7272 55.7747 51.3782 54.7837 51.3782ZM69.6408 50.5174C70.1125 50.5174 70.6184 50.563 71.1584 50.6543L70.9635 51.5837C70.499 51.4728 70.0167 51.4174 69.5181 51.4174C68.568 51.4174 67.7891 51.8022 67.1802 52.5718C66.572 53.3413 66.2682 54.313 66.2682 55.4869V61.3565H65.2532V50.7228H66.114L66.217 52.6402H66.2885C66.7465 51.8576 67.2354 51.3098 67.7544 50.9967C68.274 50.6772 68.9026 50.5174 69.6408 50.5174ZM84.3547 61.3565V54.4598C84.3547 53.3902 84.1192 52.6141 83.6474 52.1315C83.1763 51.6424 82.4447 51.3978 81.4539 51.3978C80.1206 51.3978 79.1436 51.7207 78.5216 52.3663C77.9062 53.0054 77.5991 54.0456 77.5991 55.4869V61.3565H76.584V50.7228H77.4449L77.6398 52.1805H77.7015C78.4258 51.0717 79.7145 50.5174 81.5661 50.5174C84.0955 50.5174 85.3599 51.8119 85.3599 54.4011V61.3565H84.3547ZM98.8843 61.3565L98.6284 59.6739H98.5464C97.9854 60.3587 97.408 60.8446 96.8135 61.1315C96.2256 61.4119 95.5288 61.5522 94.7224 61.5522C93.6286 61.5522 92.7776 61.2848 92.1693 60.75C91.5611 60.2152 91.2567 59.475 91.2567 58.5293C91.2567 57.4924 91.7081 56.687 92.6103 56.113C93.519 55.5391 94.8313 55.2359 96.5471 55.2033L98.6691 55.1445V54.4402C98.6691 53.4293 98.4539 52.6663 98.0234 52.1511C97.593 51.6359 96.8988 51.3782 95.9422 51.3782C94.91 51.3782 93.8405 51.6522 92.733 52.2L92.3537 51.3586C93.5774 50.8108 94.7867 50.537 95.9828 50.537C97.2065 50.537 98.1192 50.8402 98.7202 51.4467C99.3285 52.0532 99.6329 52.9989 99.6329 54.2837V61.3565H98.8843ZM94.7834 60.6717C95.973 60.6717 96.9093 60.3489 97.593 59.7033C98.2833 59.0511 98.6284 58.1478 98.6284 56.9934V55.9467L96.6803 56.025C95.1148 56.0968 93.9974 56.3315 93.3281 56.7293C92.6647 57.1207 92.3334 57.7337 92.3334 58.5685C92.3334 59.2337 92.5453 59.7522 92.9692 60.1239C93.3996 60.4891 94.0046 60.6717 94.7834 60.6717ZM109.344 60.6913C109.986 60.6913 110.547 60.6391 111.025 60.5348V61.3174C110.533 61.4739 109.966 61.5522 109.323 61.5522C108.339 61.5522 107.611 61.3011 107.14 60.7989C106.675 60.2967 106.442 59.5076 106.442 58.4315V51.5641H104.792V50.9967L106.442 50.5565L106.955 48.15H107.478V50.7228H110.749V51.5641H107.478V58.2946C107.478 59.1098 107.628 59.713 107.929 60.1043C108.23 60.4956 108.701 60.6913 109.344 60.6913ZM117.599 61.3565H116.584V50.7228H117.599V61.3565ZM116.44 47.7685C116.44 47.1424 116.656 46.8293 117.086 46.8293C117.298 46.8293 117.462 46.9109 117.578 47.0739C117.701 47.2369 117.763 47.4685 117.763 47.7685C117.763 48.0619 117.701 48.2934 117.578 48.463C117.462 48.6326 117.298 48.7174 117.086 48.7174C116.656 48.7174 116.44 48.4011 116.44 47.7685ZM133.707 56.025C133.707 57.7598 133.266 59.1163 132.384 60.0946C131.503 61.0663 130.287 61.5522 128.735 61.5522C127.757 61.5522 126.896 61.3271 126.151 60.8772C125.406 60.4271 124.835 59.7815 124.439 58.9402C124.043 58.0989 123.845 57.1272 123.845 56.025C123.845 54.2902 124.285 52.9402 125.167 51.975C126.048 51.0032 127.258 50.5174 128.796 50.5174C130.327 50.5174 131.527 51.0098 132.395 51.9946C133.269 52.9728 133.707 54.3163 133.707 56.025ZM124.911 56.025C124.911 57.4859 125.245 58.6271 125.915 59.4489C126.592 60.2641 127.545 60.6717 128.775 60.6717C130.006 60.6717 130.956 60.2641 131.626 59.4489C132.302 58.6271 132.641 57.4859 132.641 56.025C132.641 54.5576 132.299 53.4195 131.616 52.6108C130.939 51.8022 129.985 51.3978 128.755 51.3978C127.525 51.3978 126.575 51.8022 125.905 52.6108C125.242 53.413 124.911 54.5511 124.911 56.025ZM147.714 61.3565V54.4598C147.714 53.3902 147.478 52.6141 147.006 52.1315C146.535 51.6424 145.804 51.3978 144.812 51.3978C143.48 51.3978 142.502 51.7207 141.88 52.3663C141.265 53.0054 140.957 54.0456 140.957 55.4869V61.3565H139.942V50.7228H140.804L140.999 52.1805H141.06C141.785 51.0717 143.073 50.5174 144.925 50.5174C147.454 50.5174 148.718 51.8119 148.718 54.4011V61.3565H147.714ZM162.243 61.3565L161.987 59.6739H161.905C161.344 60.3587 160.767 60.8446 160.172 61.1315C159.584 61.4119 158.887 61.5522 158.081 61.5522C156.987 61.5522 156.136 61.2848 155.528 60.75C154.919 60.2152 154.616 59.475 154.616 58.5293C154.616 57.4924 155.066 56.687 155.968 56.113C156.878 55.5391 158.19 55.2359 159.905 55.2033L162.028 55.1445V54.4402C162.028 53.4293 161.813 52.6663 161.382 52.1511C160.951 51.6359 160.258 51.3782 159.3 51.3782C158.268 51.3782 157.199 51.6522 156.092 52.2L155.713 51.3586C156.936 50.8108 158.146 50.537 159.342 50.537C160.565 50.537 161.477 50.8402 162.079 51.4467C162.687 52.0532 162.991 52.9989 162.991 54.2837V61.3565H162.243ZM158.142 60.6717C159.331 60.6717 160.268 60.3489 160.951 59.7033C161.641 59.0511 161.987 58.1478 161.987 56.9934V55.9467L160.039 56.025C158.474 56.0968 157.356 56.3315 156.686 56.7293C156.024 57.1207 155.692 57.7337 155.692 58.5685C155.692 59.2337 155.904 59.7522 156.327 60.1239C156.758 60.4891 157.363 60.6717 158.142 60.6717ZM170.775 61.3565H169.76V46.1348H170.775V61.3565Z" fill="white"/>
</g>
<defs>
<clipPath id="clip0">
<rect width="187" height="72" fill="white"/>
</clipPath>
</defs>
</svg>
