<svg width="17" height="144" viewBox="0 0 17 144" fill="none" xmlns="http://www.w3.org/2000/svg">
<path d="M8.12598 128.783C10.6826 128.783 12.6699 129.424 14.0879 130.706C15.5059 131.981 16.2148 133.789 16.2148 136.131C16.2148 138.501 15.513 140.324 14.1094 141.599C12.6986 142.866 10.6969 143.5 8.10449 143.5C5.51204 143.5 3.52116 142.863 2.13184 141.588C0.742513 140.306 0.0478516 138.48 0.0478516 136.109C0.0478516 133.775 0.753255 131.97 2.16406 130.695C3.57487 129.421 5.56217 128.783 8.12598 128.783ZM8.12598 140.771C10.0596 140.771 11.5277 140.381 12.5303 139.601C13.5257 138.82 14.0234 137.663 14.0234 136.131C14.0234 134.605 13.5293 133.456 12.541 132.683C11.5527 131.902 10.0811 131.512 8.12598 131.512C6.19954 131.512 4.73861 131.898 3.74316 132.672C2.74772 133.438 2.25 134.584 2.25 136.109C2.25 137.649 2.74772 138.813 3.74316 139.601C4.73861 140.381 6.19954 140.771 8.12598 140.771ZM0.294922 112.55H10.457C11.6172 112.55 12.6341 112.8 13.5078 113.302C14.3743 113.796 15.0439 114.515 15.5166 115.461C15.9821 116.399 16.2148 117.523 16.2148 118.834C16.2148 120.782 15.6992 122.296 14.668 123.378C13.6367 124.459 12.2187 125 10.4141 125H0.294922L0.294922 122.422H10.2314C11.5277 122.422 12.4837 122.121 13.0996 121.519C13.7155 120.918 14.0234 119.994 14.0234 118.748C14.0234 116.327 12.7523 115.117 10.21 115.117H0.294922V112.55ZM7.59961 105.415V103.631C7.59961 102.435 7.3776 101.569 6.93359 101.032C6.48958 100.495 5.83073 100.226 4.95703 100.226C4.06901 100.226 3.43164 100.516 3.04492 101.096C2.6582 101.676 2.46484 102.55 2.46484 103.717V105.415H7.59961ZM9.72656 105.415H16L16 107.982H0.294922V103.546C0.294922 101.519 0.674479 100.018 1.43359 99.0445C2.19271 98.0706 3.33854 97.5836 4.87109 97.5836C6.82617 97.5836 8.21908 98.6005 9.0498 100.634L16 96.1979V99.1197L9.72656 102.879V105.415ZM2.27148 80.4133C2.27148 81.8885 2.79427 83.0487 3.83984 83.8937C4.88542 84.7388 6.32845 85.1613 8.16895 85.1613C10.0954 85.1613 11.5527 84.7567 12.541 83.9475C13.5293 83.1311 14.0234 81.953 14.0234 80.4133C14.0234 79.7473 13.959 79.1027 13.8301 78.4797C13.694 77.8566 13.5221 77.2085 13.3145 76.5354H15.5166C15.9821 77.7671 16.2148 79.1636 16.2148 80.7248C16.2148 83.0236 15.5202 84.7889 14.1309 86.0207C12.7344 87.2525 10.7399 87.8684 8.14746 87.8684C6.51465 87.8684 5.08594 87.5712 3.86133 86.9768C2.63672 86.3752 1.69857 85.5087 1.04687 84.3771C0.395182 83.2456 0.0693359 81.9172 0.0693359 80.3918C0.0693359 78.7876 0.405924 77.3052 1.0791 75.9445L3.2168 76.8684C2.96615 77.3983 2.74772 77.9605 2.56152 78.5549C2.36816 79.1421 2.27148 79.7616 2.27148 80.4133ZM16 72.6016H0.294922L0.294922 70.0342H13.7979V63.3848H16V72.6016ZM16 60.1277H0.294922L0.294922 57.5603H16V60.1277ZM16 43.9693V52.8531H0.294922L0.294922 43.9693H2.46484L2.46484 50.2857H6.74023L6.74023 44.3668H8.88867L8.88867 50.2857H13.8193V43.9693H16ZM16 26.9301L16 30.0775L3.48535 37.8012V37.8871L4.18359 37.8334C5.51562 37.7331 6.73307 37.683 7.83594 37.683H16V40.0141H0.294922L0.294922 36.8988L12.7451 29.1967V29.1322C12.5804 29.1465 11.9824 29.1752 10.9512 29.2182C9.91276 29.2611 9.10352 29.2826 8.52344 29.2826H0.294922V26.9301H16ZM16 16.8088V19.3762H2.49707L2.49707 23.9953H0.294922L0.294922 12.1897H2.49707L2.49707 16.8088H16ZM11.7354 0.166992C13.1318 0.166992 14.2275 0.671875 15.0225 1.68164C15.8174 2.69141 16.2148 4.08431 16.2148 5.86035C16.2148 7.63639 15.9391 9.09017 15.3877 10.2217H12.96C13.2965 9.50553 13.5615 8.74642 13.7549 7.94434C13.9482 7.13509 14.0449 6.38314 14.0449 5.68848C14.0449 4.67155 13.8516 3.92318 13.4648 3.44336C13.0781 2.95638 12.5589 2.71289 11.9072 2.71289C11.32 2.71289 10.8223 2.9349 10.4141 3.37891C10.0059 3.82292 9.52246 4.73958 8.96387 6.12891C8.38379 7.5612 7.72135 8.57096 6.97656 9.1582C6.23177 9.74544 5.33659 10.0391 4.29102 10.0391C2.98047 10.0391 1.94922 9.57357 1.19727 8.64258C0.445312 7.71159 0.0693359 6.46191 0.0693359 4.89355C0.0693359 3.38965 0.398763 1.8929 1.05762 0.40332L3.15234 1.21973C2.5651 2.61621 2.27148 3.8623 2.27148 4.95801C2.27148 5.78874 2.4541 6.41895 2.81934 6.84863C3.17741 7.27832 3.65365 7.49316 4.24805 7.49316C4.65625 7.49316 5.00716 7.40723 5.30078 7.23535C5.58724 7.06348 5.85937 6.7806 6.11719 6.38672C6.375 5.99284 6.71517 5.28385 7.1377 4.25977C7.61751 3.10677 8.0651 2.26172 8.48047 1.72461C8.89583 1.1875 9.36491 0.79362 9.8877 0.542969C10.4105 0.292318 11.0264 0.166992 11.7354 0.166992Z" fill="white"/>
</svg>
