<svg width="32" height="30" viewBox="0 0 32 30" fill="none" xmlns="http://www.w3.org/2000/svg">
<path d="M31.5095 26.9887L24.2553 20.1879C26.0018 18.0081 26.9446 15.355 26.9414 12.6288C26.9414 5.66532 20.8984 0 13.4707 0C6.04301 0 0 5.66532 0 12.6288C0 19.5923 6.04301 25.2576 13.4707 25.2576C16.3786 25.2606 19.2087 24.3767 21.5337 22.7394L28.788 29.5402C29.1552 29.8479 29.6341 30.0122 30.1264 29.9993C30.6188 29.9864 31.0872 29.7972 31.4355 29.4707C31.7837 29.1442 31.9855 28.7051 31.9992 28.2435C32.013 27.782 31.8378 27.333 31.5095 26.9887V26.9887ZM3.84878 12.6288C3.84878 10.8447 4.41309 9.10066 5.47037 7.61724C6.52764 6.13381 8.03038 4.97762 9.78856 4.29488C11.5467 3.61213 13.4814 3.4335 15.3479 3.78156C17.2143 4.12962 18.9288 4.98874 20.2745 6.25029C21.6201 7.51184 22.5365 9.11915 22.9078 10.869C23.279 12.6188 23.0885 14.4325 22.3602 16.0808C21.632 17.7291 20.3987 19.1379 18.8164 20.1291C17.2341 21.1203 15.3738 21.6494 13.4707 21.6494C10.9198 21.6465 8.47416 20.6952 6.67036 19.0041C4.86656 17.3131 3.85184 15.0203 3.84878 12.6288V12.6288Z" fill="white"/>
</svg>
