<svg width="33" height="29" viewBox="0 0 33 29" fill="none" xmlns="http://www.w3.org/2000/svg">
<path d="M30.0405 15.4106C29.7764 15.1589 29.6307 14.8352 29.6307 14.5C29.6307 14.1649 29.7764 13.8412 30.0405 13.5895L32.1493 11.6028C32.3816 11.3857 32.5259 11.1126 32.5614 10.8226C32.597 10.5326 32.5219 10.2406 32.347 9.98855L29.052 5.21491C28.8789 4.96315 28.6153 4.76359 28.2987 4.64468C27.9822 4.52576 27.6289 4.49357 27.2892 4.55267L24.192 5.07695C23.7979 5.14514 23.3876 5.09018 23.0386 4.92242C22.6896 4.75467 22.4259 4.48574 22.2974 4.16637L21.2925 1.64159C21.182 1.36756 20.9714 1.12954 20.6905 0.961193C20.4097 0.792843 20.0728 0.702668 19.7274 0.703414H13.1375C12.7783 0.687711 12.4228 0.770916 12.1253 0.940322C11.8278 1.10973 11.6047 1.35602 11.4901 1.64159L10.5675 4.16637C10.439 4.48574 10.1753 4.75467 9.82631 4.92242C9.47728 5.09018 9.067 5.14514 8.6729 5.07695L5.4933 4.55267C5.1713 4.51457 4.84304 4.55712 4.54987 4.67497C4.2567 4.79281 4.01173 4.98069 3.84583 5.21491L0.550905 9.98855C0.371596 10.2378 0.290972 10.5281 0.320561 10.818C0.350151 11.108 0.488437 11.3826 0.715652 11.6028L2.80793 13.5895C3.07205 13.8412 3.21771 14.1649 3.21771 14.5C3.21771 14.8352 3.07205 15.1589 2.80793 15.4106L0.715652 17.3973C0.488437 17.6175 0.350151 17.8921 0.320561 18.1821C0.290972 18.472 0.371596 18.7623 0.550905 19.0115L3.84583 23.7852C4.01898 24.0369 4.28261 24.2365 4.59914 24.3554C4.91567 24.4743 5.26895 24.5065 5.60862 24.4474L8.70585 23.9231C9.09995 23.8549 9.51023 23.9099 9.85926 24.0777C10.2083 24.2454 10.4719 24.5144 10.6004 24.8337L11.6054 27.3585C11.72 27.6441 11.9431 27.8904 12.2406 28.0598C12.5381 28.2292 12.8936 28.3124 13.2529 28.2967H19.8427C20.1881 28.2974 20.525 28.2072 20.8059 28.0389C21.0867 27.8705 21.2973 27.6325 21.4078 27.3585L22.4127 24.8337C22.5412 24.5144 22.8049 24.2454 23.1539 24.0777C23.503 23.9099 23.9132 23.8549 24.3073 23.9231L27.4046 24.4474C27.7442 24.5065 28.0975 24.4743 28.414 24.3554C28.7306 24.2365 28.9942 24.0369 29.1674 23.7852L32.4623 19.0115C32.6372 18.7595 32.7123 18.4675 32.6768 18.1775C32.6412 17.8875 32.497 17.6144 32.2646 17.3973L30.0405 15.4106ZM27.5858 17.2594L28.9038 18.5011L26.795 21.5639L24.851 21.2328C23.6645 21.0297 22.4302 21.1985 21.3824 21.7071C20.3347 22.2158 19.5464 23.0289 19.1672 23.9921L18.5412 25.5374H14.3237L13.7306 23.9645C13.3515 23.0013 12.5632 22.1882 11.5154 21.6795C10.4677 21.1709 9.2334 21.0021 8.04687 21.2052L6.10286 21.5363L3.96116 18.4873L5.27913 17.2456C6.0896 16.4867 6.53768 15.5043 6.53768 14.4862C6.53768 13.4682 6.0896 12.4858 5.27913 11.7269L3.96116 10.4852L6.06991 7.44997L8.01392 7.78109C9.20045 7.9842 10.4347 7.81541 11.4825 7.30676C12.5302 6.7981 13.3185 5.98498 13.6977 5.02176L14.3237 3.46274H18.5412L19.1672 5.03556C19.5464 5.99878 20.3347 6.8119 21.3824 7.32055C22.4302 7.82921 23.6645 7.998 24.851 7.79488L26.795 7.46376L28.9038 10.5266L27.5858 11.7683C26.7844 12.5254 26.3419 13.5021 26.3419 14.5138C26.3419 15.5256 26.7844 16.5023 27.5858 17.2594V17.2594ZM16.4325 8.98139C15.1291 8.98139 13.855 9.30506 12.7713 9.91145C11.6876 10.5179 10.843 11.3797 10.3442 12.3881C9.84545 13.3966 9.71495 14.5062 9.96922 15.5767C10.2235 16.6472 10.8511 17.6305 11.7727 18.4023C12.6943 19.1741 13.8685 19.6997 15.1468 19.9127C16.4251 20.1256 17.7501 20.0163 18.9543 19.5986C20.1584 19.1809 21.1876 18.4736 21.9117 17.566C22.6358 16.6585 23.0223 15.5915 23.0223 14.5C23.0223 13.0364 22.328 11.6327 21.0922 10.5978C19.8563 9.56282 18.1802 8.98139 16.4325 8.98139V8.98139ZM16.4325 17.2594C15.7808 17.2594 15.1437 17.0975 14.6019 16.7943C14.06 16.4911 13.6377 16.0602 13.3883 15.556C13.139 15.0518 13.0737 14.497 13.2008 13.9617C13.328 13.4265 13.6418 12.9348 14.1026 12.5489C14.5634 12.163 15.1505 11.9002 15.7896 11.7937C16.4288 11.6873 17.0913 11.7419 17.6934 11.9508C18.2954 12.1596 18.81 12.5133 19.1721 12.967C19.5341 13.4208 19.7274 13.9543 19.7274 14.5C19.7274 15.2319 19.3802 15.9337 18.7623 16.4512C18.1444 16.9687 17.3063 17.2594 16.4325 17.2594Z" fill="#3C3F52"/>
</svg>
