<svg width="68" height="60" viewBox="0 0 68 60" fill="none" xmlns="http://www.w3.org/2000/svg">
<path d="M34 57L61 30M34 57L7 30M34 57L25 30M34 57L43 30M61 30L52 18M61 30H43M52 18H34M52 18L43 30M16 18L7 30M16 18L25 30M16 18H34M7 30H25M25 30L34 18M25 30H43M34 18L43 30" stroke="white" stroke-width="3"/>
<path d="M34 15V13" stroke="white" stroke-width="2"/>
<path d="M34 12V0" stroke="white" stroke-width="2"/>
<path d="M54.7202 14.9371L61.9228 8" stroke="white" stroke-width="2"/>
<path d="M13.2025 14.9371L6 8" stroke="white" stroke-width="2"/>
<path d="M64 30H68" stroke="white" stroke-width="2"/>
<path d="M0 30H4" stroke="white" stroke-width="2"/>
</svg>
