<svg width="55" height="71" viewBox="0 0 55 71" fill="none" xmlns="http://www.w3.org/2000/svg">
<path d="M14.7143 45.5946L20.5 46L13 67L10.4286 60.5135L4 61.1622L11.7143 41.8104L14.7143 45.5946ZM14.7143 45.5946L11.7143 54.6757" stroke="white" stroke-width="2"/>
<path d="M39.7857 45.7843L34 46.1897L41.5 67.1897L44.0714 60.7032L50.5 61.3518L42.7857 42L39.7857 45.7843ZM39.7857 45.7843L42.7857 54.8653" stroke="white" stroke-width="2"/>
<path d="M40.9916 13.2299C40.6135 13.0579 40.1441 13.1328 39.8481 13.4143C39.5601 13.6882 39.4725 14.1087 39.6339 14.464C39.7991 14.8277 40.2029 15.0628 40.6215 15.0369C41.0423 15.0109 41.4073 14.7337 41.5253 14.3515C41.6614 13.9109 41.43 13.4264 40.9916 13.2299Z" fill="white"/>
<path d="M42.7132 16.8038C42.2201 17.0467 42.029 17.6215 42.2861 18.0874C45.9001 24.6337 44.364 32.6626 38.5506 37.6121C31.5247 43.5939 20.6577 43.0599 14.3264 36.4217C7.99513 29.7834 8.56032 19.5162 15.5863 13.5343C21.3893 8.59366 29.9906 7.9767 36.5029 12.0342C36.9672 12.3234 37.5918 12.2023 37.8978 11.7636C38.204 11.325 38.0757 10.7349 37.6116 10.4457C30.3338 5.91135 20.7223 6.6002 14.2381 12.1208C6.38723 18.805 5.75568 30.2778 12.8303 37.6954C19.905 45.1131 32.0479 45.7098 39.8988 39.0256C46.3945 33.4952 48.1104 24.5233 44.0718 17.2074C43.8145 16.7415 43.2063 16.5609 42.7132 16.8038Z" fill="white"/>
<path d="M52.6881 25.0835L49.6279 19.8212L49.4968 13.8176C49.4896 13.4914 49.3061 13.1915 49.0106 13.0228L43.5703 9.91846L40.2846 4.77835C40.1061 4.49912 39.7886 4.32578 39.4434 4.31903L33.0891 4.19506L27.5196 1.30382C27.2176 1.14722 26.8518 1.14722 26.5498 1.30382L20.9801 4.19525L14.6259 4.31912C14.2807 4.32588 13.9632 4.49931 13.7847 4.77845L10.499 9.91856L5.05868 13.0229C4.76314 13.1915 4.57968 13.4915 4.57253 13.8177L4.44132 19.8213L1.3812 25.0835C1.21526 25.3688 1.21526 25.7144 1.3812 25.9997L4.44142 31.262L4.57253 37.2656C4.57968 37.5918 4.76314 37.8917 5.05868 38.0604L10.499 41.1647L12.1419 43.7348L13.7847 46.3048C13.9632 46.5841 14.2807 46.7574 14.6259 46.7642L17.803 46.8261L20.9802 46.8881L23.765 48.3338L26.5498 49.7795C26.7008 49.8578 26.8677 49.897 27.0346 49.897C27.2016 49.897 27.3685 49.8578 27.5195 49.7795L30.3044 48.3338L33.0892 46.8881L35.5 46.8411L39.4434 46.7642C39.7886 46.7575 40.1061 46.5841 40.2846 46.3049L40.7977 45.5022L43.5703 41.1648L49.0106 38.0605C49.3061 37.8919 49.4896 37.5919 49.4968 37.2657L49.628 31.2621L52.6882 25.9997C52.854 25.7144 52.854 25.3688 52.6881 25.0835ZM47.7438 30.5506C47.6655 30.6851 47.6229 30.8355 47.6195 30.989L47.4946 36.7025L42.3162 39.6574C42.1764 39.7372 42.0592 39.8479 41.9749 39.98L38.8474 44.8727L32.8003 44.9905C32.6378 44.9936 32.4786 45.034 32.3362 45.1078L27.0346 47.86L21.7332 45.1079C21.5908 45.034 21.4315 44.9936 21.2691 44.9905L15.2219 44.8726L12.0944 39.9799C12.0101 39.8478 11.8928 39.7371 11.7531 39.6573L6.57464 36.7024L6.44988 30.989C6.44646 30.8356 6.40387 30.6851 6.32563 30.5506L3.41262 25.5416L6.32553 20.5327C6.40377 20.3982 6.44636 20.2478 6.44978 20.0942L6.57464 14.3808L11.7531 11.4258C11.8928 11.3461 12.0101 11.2354 12.0944 11.1033L15.2219 6.21056L21.269 6.09278C21.4315 6.08964 21.5907 6.0493 21.7331 5.97547L27.0346 3.22323L32.3361 5.97538C32.4785 6.0493 32.6378 6.08964 32.8002 6.09278L38.8474 6.21065L41.9749 11.1034C42.0592 11.2355 42.1764 11.3462 42.3162 11.4259L47.4946 14.3809L47.6194 20.0942C47.6228 20.2477 47.6654 20.3982 47.7437 20.5327L50.6567 25.5416L47.7438 30.5506Z" fill="white"/>
<path d="M52.6881 25.0835L49.6279 19.8212L49.4968 13.8176C49.4896 13.4914 49.3061 13.1915 49.0106 13.0228L43.5703 9.91846L40.2846 4.77835C40.1061 4.49912 39.7886 4.32578 39.4434 4.31903L33.0891 4.19506L27.5196 1.30382C27.2176 1.14722 26.8518 1.14722 26.5498 1.30382L20.9801 4.19525L14.6259 4.31912C14.2807 4.32588 13.9632 4.49931 13.7847 4.77845L10.499 9.91856L5.05868 13.0229C4.76314 13.1915 4.57968 13.4915 4.57253 13.8177L4.44132 19.8213L1.3812 25.0835C1.21526 25.3688 1.21526 25.7144 1.3812 25.9997L4.44142 31.262L4.57253 37.2656C4.57968 37.5918 4.76314 37.8917 5.05868 38.0604L10.499 41.1647L12.1419 43.7348L13.7847 46.3048C13.9632 46.5841 14.2807 46.7574 14.6259 46.7642L17.803 46.8261L20.9802 46.8881L23.765 48.3338L26.5498 49.7795C26.7008 49.8578 26.8677 49.897 27.0346 49.897C27.2016 49.897 27.3685 49.8578 27.5195 49.7795L30.3044 48.3338L33.0892 46.8881L35.5 46.8411L39.4434 46.7642C39.7886 46.7575 40.1061 46.5841 40.2846 46.3049L40.7977 45.5022L43.5703 41.1648L49.0106 38.0605C49.3061 37.8919 49.4896 37.5919 49.4968 37.2657L49.628 31.2621L52.6882 25.9997C52.854 25.7144 52.854 25.3688 52.6881 25.0835ZM47.7438 30.5506C47.6655 30.6851 47.6229 30.8355 47.6195 30.989L47.4946 36.7025L42.3162 39.6574C42.1764 39.7372 42.0592 39.8479 41.9749 39.98L38.8474 44.8727L32.8003 44.9905C32.6378 44.9936 32.4786 45.034 32.3362 45.1078L27.0346 47.86L21.7332 45.1079C21.5908 45.034 21.4315 44.9936 21.2691 44.9905L15.2219 44.8726L12.0944 39.9799C12.0101 39.8478 11.8928 39.7371 11.7531 39.6573L6.57464 36.7024L6.44988 30.989C6.44646 30.8356 6.40387 30.6851 6.32563 30.5506L3.41262 25.5416L6.32553 20.5327C6.40377 20.3982 6.44636 20.2478 6.44978 20.0942L6.57464 14.3808L11.7531 11.4258C11.8928 11.3461 12.0101 11.2354 12.0944 11.1033L15.2219 6.21056L21.269 6.09278C21.4315 6.08964 21.5907 6.0493 21.7331 5.97547L27.0346 3.22323L32.3361 5.97538C32.4785 6.0493 32.6378 6.08964 32.8002 6.09278L38.8474 6.21065L41.9749 11.1034C42.0592 11.2355 42.1764 11.3462 42.3162 11.4259L47.4946 14.3809L47.6194 20.0942C47.6228 20.2477 47.6654 20.3982 47.7437 20.5327L50.6567 25.5416L47.7438 30.5506Z" stroke="white"/>
<path d="M38.6974 22.3957L31.0602 21.4104L27.6462 15.2663C27.553 15.0981 27.3996 14.9619 27.2101 14.8792C26.7348 14.6709 26.1573 14.8445 25.9197 15.2663L22.5057 21.4104L14.8685 22.3957C14.658 22.4224 14.4654 22.5105 14.3181 22.644C14.1399 22.8066 14.0417 23.0254 14.0451 23.2522C14.0485 23.479 14.1531 23.6953 14.3361 23.8536L19.8617 28.6359L18.5562 35.3888C18.5256 35.5459 18.5452 35.7075 18.6128 35.8552C18.6803 36.0029 18.7932 36.1308 18.9385 36.2245C19.0838 36.3182 19.2557 36.3739 19.4349 36.3852C19.614 36.3965 19.7931 36.3631 19.9519 36.2887L26.783 33.1005L33.614 36.2887C33.8005 36.3768 34.017 36.4061 34.2246 36.3741C34.748 36.294 35.0999 35.8534 35.0097 35.3888L33.7042 28.6359L39.2298 23.8536C39.3802 23.7228 39.4795 23.5519 39.5095 23.365C39.5908 22.8977 39.2238 22.4651 38.6974 22.3957ZM31.3791 27.963L32.4649 33.5784L26.783 30.9296L21.101 33.5811L22.1868 27.9657L17.5907 23.9871L23.9435 23.1674L26.783 18.0594L29.6224 23.1674L35.9752 23.9871L31.3791 27.963Z" fill="white"/>
</svg>
