<svg width="49" height="46" viewBox="0 0 49 46" fill="none" xmlns="http://www.w3.org/2000/svg">
<path d="M44 11V2C44 1.44772 44.4477 1 45 1H47C47.5523 1 48 1.44772 48 2V44C48 44.5523 47.5523 45 47 45H45C44.4477 45 44 44.5523 44 44V41M44 11V26M44 11H41M5 11V2C5 1.44772 4.55228 1 4 1H2C1.44772 1 1 1.44772 1 2V44C1 44.5523 1.44772 45 2 45H4C4.55228 45 5 44.5523 5 44V41M5 11V26M5 11H8M5 26V41M5 26H8M44 26V41M44 26H41M44 41H41M5 41H8M20 11H22H27H29M20 11V4C20 3.44772 20.4477 3 21 3H28C28.5523 3 29 3.44772 29 4V11M20 11H32M20 11H17M29 11H32M32 11H34H36.5H39H41M32 11V4C32 3.44772 32.4477 3 33 3H40C40.5523 3 41 3.44772 41 4V11M8 11H10H15H17M8 11V4C8 3.44772 8.44772 3 9 3H16C16.5523 3 17 3.44772 17 4V11M20 26H22H27H29M20 26V19C20 18.4477 20.4477 18 21 18H28C28.5523 18 29 18.4477 29 19V26M20 26H17M29 26H32M41 26H39H34H32M41 26V19C41 18.4477 40.5523 18 40 18H33C32.4477 18 32 18.4477 32 19V26M8 26V19C8 18.4477 8.44772 18 9 18H16C16.5523 18 17 18.4477 17 19V26M8 26H10H15H17M8 41V34C8 33.4477 8.44772 33 9 33H16C16.5523 33 17 33.4477 17 34V41M8 41H10H15H17M17 41H20M20 41V34C20 33.4477 20.4477 33 21 33H28C28.5523 33 29 33.4477 29 34V41M20 41H22H27H29M29 41H32M32 41V34C32 33.4477 32.4477 33 33 33H40C40.5523 33 41 33.4477 41 34V41M32 41H34H39H41" stroke="white" stroke-width="2"/>
</svg>
