<svg width="28" height="227" viewBox="0 0 28 227" fill="none" xmlns="http://www.w3.org/2000/svg">
<path d="M14.1152 202.418C18.2988 202.418 21.5508 203.467 23.8711 205.564C26.1914 207.65 27.3516 210.609 27.3516 214.441C27.3516 218.32 26.2031 221.303 23.9062 223.389C21.5977 225.463 18.3223 226.5 14.0801 226.5C9.83789 226.5 6.58008 225.457 4.30664 223.371C2.0332 221.273 0.896484 218.285 0.896484 214.406C0.896484 210.586 2.05078 207.633 4.35937 205.547C6.66797 203.461 9.91992 202.418 14.1152 202.418ZM14.1152 222.035C17.2793 222.035 19.6816 221.396 21.3223 220.119C22.9512 218.842 23.7656 216.949 23.7656 214.441C23.7656 211.945 22.957 210.064 21.3398 208.799C19.7227 207.521 17.3145 206.883 14.1152 206.883C10.9629 206.883 8.57227 207.516 6.94336 208.781C5.31445 210.035 4.5 211.91 4.5 214.406C4.5 216.926 5.31445 218.83 6.94336 220.119C8.57227 221.396 10.9629 222.035 14.1152 222.035ZM1.30078 176.754H17.9297C19.8281 176.754 21.4922 177.164 22.9219 177.984C24.3398 178.793 25.4355 179.971 26.209 181.518C26.9707 183.053 27.3516 184.893 27.3516 187.037C27.3516 190.225 26.5078 192.703 24.8203 194.473C23.1328 196.242 20.8125 197.127 17.8594 197.127H1.30078V192.908H17.5605C19.6816 192.908 21.2461 192.416 22.2539 191.432C23.2617 190.447 23.7656 188.936 23.7656 186.896C23.7656 182.936 21.6855 180.955 17.5254 180.955H1.30078V176.754ZM13.2539 165.979V163.061C13.2539 161.104 12.8906 159.686 12.1641 158.807C11.4375 157.928 10.3594 157.488 8.92969 157.488C7.47656 157.488 6.43359 157.963 5.80078 158.912C5.16797 159.861 4.85156 161.291 4.85156 163.201V165.979H13.2539ZM16.7344 165.979H27V170.18H1.30078V162.92C1.30078 159.604 1.92187 157.148 3.16406 155.555C4.40625 153.961 6.28125 153.164 8.78906 153.164C11.9883 153.164 14.2676 154.828 15.627 158.156L27 150.896V155.678L16.7344 161.83V165.979ZM4.53516 126.867C4.53516 129.281 5.39062 131.18 7.10156 132.562C8.8125 133.945 11.1738 134.637 14.1855 134.637C17.3379 134.637 19.7227 133.975 21.3398 132.65C22.957 131.314 23.7656 129.387 23.7656 126.867C23.7656 125.777 23.6602 124.723 23.4492 123.703C23.2266 122.684 22.9453 121.623 22.6055 120.521H26.209C26.9707 122.537 27.3516 124.822 27.3516 127.377C27.3516 131.139 26.2148 134.027 23.9414 136.043C21.6562 138.059 18.3926 139.066 14.1504 139.066C11.4785 139.066 9.14062 138.58 7.13672 137.607C5.13281 136.623 3.59766 135.205 2.53125 133.354C1.46484 131.502 0.931641 129.328 0.931641 126.832C0.931641 124.207 1.48242 121.781 2.58398 119.555L6.08203 121.066C5.67187 121.934 5.31445 122.854 5.00977 123.826C4.69336 124.787 4.53516 125.801 4.53516 126.867ZM27 114.984H1.30078V110.783H23.3965V99.9023H27V114.984ZM27 95.4727H1.30078V91.2715H27V95.4727ZM27 69.9316V84.4688H1.30078V69.9316H4.85156V80.2676H11.8477V70.582H15.3633V80.2676H23.4316V69.9316H27ZM27 42.9492V48.0996L6.52148 60.7383V60.8789L7.66406 60.791C9.84375 60.627 11.8359 60.5449 13.6406 60.5449H27V64.3594H1.30078V59.2617L21.6738 46.6582V46.5527C21.4043 46.5762 20.4258 46.623 18.7383 46.6934C17.0391 46.7637 15.7148 46.7988 14.7656 46.7988H1.30078V42.9492H27ZM27 27.2871V31.4883H4.9043V39.0469H1.30078V19.7285H4.9043V27.2871H27ZM20.0215 0.955078C22.3066 0.955078 24.0996 1.78125 25.4004 3.43359C26.7012 5.08594 27.3516 7.36523 27.3516 10.2715C27.3516 13.1777 26.9004 15.5566 25.998 17.4082H22.0254C22.5762 16.2363 23.0098 14.9941 23.3262 13.6816C23.6426 12.3574 23.8008 11.127 23.8008 9.99023C23.8008 8.32617 23.4844 7.10156 22.8516 6.31641C22.2187 5.51953 21.3691 5.12109 20.3027 5.12109C19.3418 5.12109 18.5273 5.48438 17.8594 6.21094C17.1914 6.9375 16.4004 8.4375 15.4863 10.7109C14.5371 13.0547 13.4531 14.707 12.2344 15.668C11.0156 16.6289 9.55078 17.1094 7.83984 17.1094C5.69531 17.1094 4.00781 16.3477 2.77734 14.8242C1.54687 13.3008 0.931641 11.2559 0.931641 8.68945C0.931641 6.22852 1.4707 3.7793 2.54883 1.3418L5.97656 2.67773C5.01562 4.96289 4.53516 7.00195 4.53516 8.79492C4.53516 10.1543 4.83398 11.1855 5.43164 11.8887C6.01758 12.5918 6.79687 12.9434 7.76953 12.9434C8.4375 12.9434 9.01172 12.8027 9.49219 12.5215C9.96094 12.2402 10.4062 11.7773 10.8281 11.1328C11.25 10.4883 11.8066 9.32812 12.498 7.65234C13.2832 5.76562 14.0156 4.38281 14.6953 3.50391C15.375 2.625 16.1426 1.98047 16.998 1.57031C17.8535 1.16016 18.8613 0.955078 20.0215 0.955078Z" fill="white"/>
</svg>
